{
    "asset" : {
        "generator" : "Khronos glTF Blender I/O v1.2.75",
        "version" : "2.0"
    },
    "scene" : 0,
    "scenes" : [
        {
            "name" : "Scene",
            "nodes" : [
                0
            ]
        }
    ],
    "nodes" : [
        {
            "mesh" : 0,
            "name" : "ASTEROID_LOW_POLY_4_",
            "rotation" : [
                -0.5382933616638184,
                0.0019965595565736294,
                0.6958405375480652,
                0.47543901205062866
            ],
            "scale" : [
                1.1144320964813232,
                1.1144322156906128,
                1.1144318580627441
            ]
        }
    ],
    "meshes" : [
        {
            "name" : "asteroid_04",
            "primitives" : [
                {
                    "attributes" : {
                        "POSITION" : 0,
                        "NORMAL" : 1,
                        "TANGENT" : 2,
                        "TEXCOORD_0" : 3
                    },
                    "indices" : 4
                }
            ]
        }
    ],
    "accessors" : [
        {
            "bufferView" : 0,
            "componentType" : 5126,
            "count" : 5976,
            "max" : [
                0.5623303651809692,
                0.791897177696228,
                0.5284138917922974
            ],
            "min" : [
                -0.5607914924621582,
                -0.7946032285690308,
                -0.5304043889045715
            ],
            "type" : "VEC3"
        },
        {
            "bufferView" : 1,
            "componentType" : 5126,
            "count" : 5976,
            "type" : "VEC3"
        },
        {
            "bufferView" : 2,
            "componentType" : 5126,
            "count" : 5976,
            "type" : "VEC4"
        },
        {
            "bufferView" : 3,
            "componentType" : 5126,
            "count" : 5976,
            "type" : "VEC2"
        },
        {
            "bufferView" : 4,
            "componentType" : 5123,
            "count" : 5976,
            "type" : "SCALAR"
        }
    ],
    "bufferViews" : [
        {
            "buffer" : 0,
            "byteLength" : 71712,
            "byteOffset" : 0
        },
        {
            "buffer" : 0,
            "byteLength" : 71712,
            "byteOffset" : 71712
        },
        {
            "buffer" : 0,
            "byteLength" : 95616,
            "byteOffset" : 143424
        },
        {
            "buffer" : 0,
            "byteLength" : 47808,
            "byteOffset" : 239040
        },
        {
            "buffer" : 0,
            "byteLength" : 11952,
            "byteOffset" : 286848
        }
    ],
    "buffers" : [
        {
            "byteLength" : 298800,
            "uri" : "data:application/octet-stream;base64,"
        }
    ]
}
