{
    "asset" : {
        "generator" : "Khronos glTF Blender I/O v1.2.75",
        "version" : "2.0"
    },
    "scene" : 0,
    "scenes" : [
        {
            "name" : "Scene",
            "nodes" : [
                0,
                4
            ]
        }
    ],
    "nodes" : [
        {
            "mesh" : 0,
            "name" : "Asteroid_3_LOW_MODEL_",
            "rotation" : [
                -0.0011569263879209757,
                -0.0005341110518202186,
                0.7096806168556213,
                0.704522430896759
            ],
            "scale" : [
                0.6095868945121765,
                1.0798596143722534,
                1
            ]
        },
        {
            "name" : "light_fill_01",
            "rotation" : [
                0.4393681287765503,
                0.2501593232154846,
                -0.8623966574668884,
                0.0254577174782753
            ],
            "scale" : [
                0.05686800181865692,
                0.05686800181865692,
                0.05686800554394722
            ],
            "translation" : [
                -1.824432134628296,
                -1.2928556203842163,
                1.180546522140503
            ]
        },
        {
            "name" : "light_key_02",
            "rotation" : [
                -0.10841137915849686,
                0.6510528922080994,
                0.6794768571853638,
                0.3204503357410431
            ],
            "scale" : [
                0.05686800181865692,
                0.056868020445108414,
                0.05686799809336662
            ],
            "translation" : [
                0.955971896648407,
                2.454496145248413,
                0.22274872660636902
            ]
        },
        {
            "name" : "light_rim_01",
            "rotation" : [
                -0.3854733407497406,
                0.8344559073448181,
                0.3922056257724762,
                0.035614095628261566
            ],
            "scale" : [
                0.056867994368076324,
                0.05686801299452782,
                0.05686800554394722
            ],
            "translation" : [
                -0.7794826030731201,
                1.9029330015182495,
                -2.37766432762146
            ]
        },
        {
            "children" : [
                1,
                2,
                3
            ],
            "name" : "light_rig",
            "rotation" : [
                -0.3851703107357025,
                0.9210829138755798,
                0.011744971387088299,
                0.05578705295920372
            ],
            "scale" : [
                2.1246626377105713,
                2.1246626377105713,
                2.124662399291992
            ],
            "translation" : [
                -0.0662798210978508,
                -0.1361185610294342,
                0.16242647171020508
            ]
        }
    ],
    "meshes" : [
        {
            "name" : "Cube.001",
            "primitives" : [
                {
                    "attributes" : {
                        "POSITION" : 0,
                        "NORMAL" : 1,
                        "TANGENT" : 2,
                        "TEXCOORD_0" : 3
                    },
                    "indices" : 4
                }
            ]
        }
    ],
    "accessors" : [
        {
            "bufferView" : 0,
            "componentType" : 5126,
            "count" : 1852,
            "max" : [
                1.725069522857666,
                2.211167812347412,
                0.9945966601371765
            ],
            "min" : [
                -1.7600020170211792,
                -1.204197883605957,
                -1.0720701217651367
            ],
            "type" : "VEC3"
        },
        {
            "bufferView" : 1,
            "componentType" : 5126,
            "count" : 1852,
            "type" : "VEC3"
        },
        {
            "bufferView" : 2,
            "componentType" : 5126,
            "count" : 1852,
            "type" : "VEC4"
        },
        {
            "bufferView" : 3,
            "componentType" : 5126,
            "count" : 1852,
            "type" : "VEC2"
        },
        {
            "bufferView" : 4,
            "componentType" : 5123,
            "count" : 8004,
            "type" : "SCALAR"
        }
    ],
    "bufferViews" : [
        {
            "buffer" : 0,
            "byteLength" : 22224,
            "byteOffset" : 0
        },
        {
            "buffer" : 0,
            "byteLength" : 22224,
            "byteOffset" : 22224
        },
        {
            "buffer" : 0,
            "byteLength" : 29632,
            "byteOffset" : 44448
        },
        {
            "buffer" : 0,
            "byteLength" : 14816,
            "byteOffset" : 74080
        },
        {
            "buffer" : 0,
            "byteLength" : 16008,
            "byteOffset" : 88896
        }
    ],
    "buffers" : [
        {
            "byteLength" : 104904,
            "uri" : "data:application/octet-stream;base64,"
        }
    ]
}
