{
    "asset" : {
        "generator" : "Khronos glTF Blender I/O v1.2.75",
        "version" : "2.0"
    },
    "scene" : 0,
    "scenes" : [
        {
            "name" : "Scene",
            "nodes" : [
                0
            ]
        }
    ],
    "nodes" : [
        {
            "mesh" : 0,
            "name" : "ASTEROID_LOW_POLY_2_",
            "rotation" : [
                -0.0238163061439991,
                0.15614818036556244,
                0.14888720214366913,
                0.9761573076248169
            ]
        }
    ],
    "meshes" : [
        {
            "name" : "Cube.000",
            "primitives" : [
                {
                    "attributes" : {
                        "POSITION" : 0,
                        "NORMAL" : 1,
                        "TANGENT" : 2,
                        "TEXCOORD_0" : 3
                    },
                    "indices" : 4
                }
            ]
        }
    ],
    "accessors" : [
        {
            "bufferView" : 0,
            "componentType" : 5126,
            "count" : 1369,
            "max" : [
                1.9342379570007324,
                1.0510371923446655,
                1.5594109296798706
            ],
            "min" : [
                -1.6753026247024536,
                -1.3508172035217285,
                -0.9582850933074951
            ],
            "type" : "VEC3"
        },
        {
            "bufferView" : 1,
            "componentType" : 5126,
            "count" : 1369,
            "type" : "VEC3"
        },
        {
            "bufferView" : 2,
            "componentType" : 5126,
            "count" : 1369,
            "type" : "VEC4"
        },
        {
            "bufferView" : 3,
            "componentType" : 5126,
            "count" : 1369,
            "type" : "VEC2"
        },
        {
            "bufferView" : 4,
            "componentType" : 5123,
            "count" : 5712,
            "type" : "SCALAR"
        }
    ],
    "bufferViews" : [
        {
            "buffer" : 0,
            "byteLength" : 16428,
            "byteOffset" : 0
        },
        {
            "buffer" : 0,
            "byteLength" : 16428,
            "byteOffset" : 16428
        },
        {
            "buffer" : 0,
            "byteLength" : 21904,
            "byteOffset" : 32856
        },
        {
            "buffer" : 0,
            "byteLength" : 10952,
            "byteOffset" : 54760
        },
        {
            "buffer" : 0,
            "byteLength" : 11424,
            "byteOffset" : 65712
        }
    ],
    "buffers" : [
        {
            "byteLength" : 77136,
            "uri" : "data:application/octet-stream;base64,"
        }
    ]
}
