{
    "asset" : {
        "generator" : "Khronos glTF Blender I/O v1.2.75",
        "version" : "2.0"
    },
    "scene" : 0,
    "scenes" : [
        {
            "name" : "Scene",
            "nodes" : [
                0
            ]
        }
    ],
    "nodes" : [
        {
            "mesh" : 0,
            "name" : "ASTEROID_LOW_POLY_1_",
            "rotation" : [
                -0.696527361869812,
                0.07491474598646164,
                -0.17167016863822937,
                -0.6926519870758057
            ]
        }
    ],
    "materials" : [
        {
            "doubleSided" : true,
            "name" : "ASTEROID_LOW_POLY_1_",
            "pbrMetallicRoughness" : {}
        }
    ],
    "meshes" : [
        {
            "name" : "Cube.004",
            "primitives" : [
                {
                    "attributes" : {
                        "POSITION" : 0,
                        "NORMAL" : 1,
                        "TANGENT" : 2,
                        "TEXCOORD_0" : 3,
                        "COLOR_0" : 4
                    },
                    "indices" : 5,
                    "material" : 0
                }
            ]
        }
    ],
    "accessors" : [
        {
            "bufferView" : 0,
            "componentType" : 5126,
            "count" : 1510,
            "max" : [
                1.7977203130722046,
                1.2418954372406006,
                1.1927435398101807
            ],
            "min" : [
                -1.7790175676345825,
                -1.208847999572754,
                -1.0486485958099365
            ],
            "type" : "VEC3"
        },
        {
            "bufferView" : 1,
            "componentType" : 5126,
            "count" : 1510,
            "type" : "VEC3"
        },
        {
            "bufferView" : 2,
            "componentType" : 5126,
            "count" : 1510,
            "type" : "VEC4"
        },
        {
            "bufferView" : 3,
            "componentType" : 5126,
            "count" : 1510,
            "type" : "VEC2"
        },
        {
            "bufferView" : 4,
            "componentType" : 5126,
            "count" : 1510,
            "type" : "VEC4"
        },
        {
            "bufferView" : 5,
            "componentType" : 5123,
            "count" : 7110,
            "type" : "SCALAR"
        }
    ],
    "bufferViews" : [
        {
            "buffer" : 0,
            "byteLength" : 18120,
            "byteOffset" : 0
        },
        {
            "buffer" : 0,
            "byteLength" : 18120,
            "byteOffset" : 18120
        },
        {
            "buffer" : 0,
            "byteLength" : 24160,
            "byteOffset" : 36240
        },
        {
            "buffer" : 0,
            "byteLength" : 12080,
            "byteOffset" : 60400
        },
        {
            "buffer" : 0,
            "byteLength" : 24160,
            "byteOffset" : 72480
        },
        {
            "buffer" : 0,
            "byteLength" : 14220,
            "byteOffset" : 96640
        }
    ],
    "buffers" : [
        {
            "byteLength" : 110860,
            "uri" : "data:application/octet-stream;base64,"
        }
    ]
}
