{
    "asset" : {
        "generator" : "Khronos glTF Blender I/O v1.2.75",
        "version" : "2.0"
    },
    "scene" : 0,
    "scenes" : [
        {
            "name" : "Scene",
            "nodes" : [
                0
            ]
        }
    ],
    "nodes" : [
        {
            "mesh" : 0,
            "name" : "Mesh_LP",
            "rotation" : [
                0.7071068286895752,
                0,
                0,
                0.7071067094802856
            ]
        }
    ],
    "meshes" : [
        {
            "name" : "Mesh.002",
            "primitives" : [
                {
                    "attributes" : {
                        "POSITION" : 0,
                        "NORMAL" : 1,
                        "TANGENT" : 2,
                        "TEXCOORD_0" : 3
                    },
                    "indices" : 4
                }
            ]
        }
    ],
    "accessors" : [
        {
            "bufferView" : 0,
            "componentType" : 5126,
            "count" : 9457,
            "max" : [
                5.900000095367432,
                2.9000000953674316,
                9.716592788696289
            ],
            "min" : [
                -5.900000095367432,
                -1.75,
                -5.896116256713867
            ],
            "type" : "VEC3"
        },
        {
            "bufferView" : 1,
            "componentType" : 5126,
            "count" : 9457,
            "type" : "VEC3"
        },
        {
            "bufferView" : 2,
            "componentType" : 5126,
            "count" : 9457,
            "type" : "VEC4"
        },
        {
            "bufferView" : 3,
            "componentType" : 5126,
            "count" : 9457,
            "type" : "VEC2"
        },
        {
            "bufferView" : 4,
            "componentType" : 5123,
            "count" : 21420,
            "type" : "SCALAR"
        }
    ],
    "bufferViews" : [
        {
            "buffer" : 0,
            "byteLength" : 113484,
            "byteOffset" : 0
        },
        {
            "buffer" : 0,
            "byteLength" : 113484,
            "byteOffset" : 113484
        },
        {
            "buffer" : 0,
            "byteLength" : 151312,
            "byteOffset" : 226968
        },
        {
            "buffer" : 0,
            "byteLength" : 75656,
            "byteOffset" : 378280
        },
        {
            "buffer" : 0,
            "byteLength" : 42840,
            "byteOffset" : 453936
        }
    ],
    "buffers" : [
        {
            "byteLength" : 496776,
            "uri" : "data:application/octet-stream;base64,"
        }
    ]
}
