{
    "asset" : {
        "generator" : "Khronos glTF Blender I/O v1.2.75",
        "version" : "2.0"
    },
    "scene" : 0,
    "scenes" : [
        {
            "extras" : {
                "glTF2ExportSettings" : {
                    "export_animations" : 0,
                    "export_colors" : 0,
                    "export_extras" : 1,
                    "export_format" : "GLTF_EMBEDDED",
                    "export_materials" : 0,
                    "export_morph" : 0,
                    "export_skins" : 0,
                    "export_tangents" : 1,
                    "export_yup" : 0
                }
            },
            "name" : "Scene",
            "nodes" : [
                0
            ]
        }
    ],
    "nodes" : [
        {
            "mesh" : 0,
            "name" : "gunboatLP",
            "rotation" : [
                0.7071067690849304,
                0,
                0,
                0.7071067690849304
            ],
            "scale" : [
                0.550000011920929,
                0.550000011920929,
                0.550000011920929
            ]
        }
    ],
    "meshes" : [
        {
            "name" : "gunboatLP_mesh",
            "primitives" : [
                {
                    "attributes" : {
                        "POSITION" : 0,
                        "NORMAL" : 1,
                        "TANGENT" : 2,
                        "TEXCOORD_0" : 3
                    },
                    "indices" : 4
                }
            ]
        }
    ],
    "accessors" : [
        {
            "bufferView" : 0,
            "componentType" : 5126,
            "count" : 3839,
            "max" : [
                2.6779444217681885,
                0.8999999761581421,
                3
            ],
            "min" : [
                -2.6779444217681885,
                -0.6000000238418579,
                -2.880000114440918
            ],
            "type" : "VEC3"
        },
        {
            "bufferView" : 1,
            "componentType" : 5126,
            "count" : 3839,
            "type" : "VEC3"
        },
        {
            "bufferView" : 2,
            "componentType" : 5126,
            "count" : 3839,
            "type" : "VEC4"
        },
        {
            "bufferView" : 3,
            "componentType" : 5126,
            "count" : 3839,
            "type" : "VEC2"
        },
        {
            "bufferView" : 4,
            "componentType" : 5123,
            "count" : 9582,
            "type" : "SCALAR"
        }
    ],
    "bufferViews" : [
        {
            "buffer" : 0,
            "byteLength" : 46068,
            "byteOffset" : 0
        },
        {
            "buffer" : 0,
            "byteLength" : 46068,
            "byteOffset" : 46068
        },
        {
            "buffer" : 0,
            "byteLength" : 61424,
            "byteOffset" : 92136
        },
        {
            "buffer" : 0,
            "byteLength" : 30712,
            "byteOffset" : 153560
        },
        {
            "buffer" : 0,
            "byteLength" : 19164,
            "byteOffset" : 184272
        }
    ],
    "buffers" : [
        {
            "byteLength" : 203436,
            "uri" : "data:application/octet-stream;base64,"
        }
    ]
}
